<mxfile host="app.diagrams.net" agent="Mozilla/5.0 (Macintosh; Intel Mac OS X 10_15_7) AppleWebKit/537.36 (KHTML, like Gecko) Chrome/140.0.0.0 Safari/537.36" version="28.2.1">
  <diagram name="ER Diagram" id="b9_lBCb6fOHXRec9Kjxs">
    <mxGraphModel dx="1306" dy="836" grid="1" gridSize="10" guides="1" tooltips="1" connect="1" arrows="1" fold="1" page="1" pageScale="1" pageWidth="827" pageHeight="1169" math="0" shadow="0">
      <root>
        <mxCell id="0" />
        <mxCell id="1" parent="0" />
        <mxCell id="azZfjmK6TkHbKyzEAtvO-1" value="&lt;b&gt;USERS&lt;/b&gt;&lt;br/&gt;id: UUID (PK)&lt;br/&gt;username: varchar(50) UNIQUE NOT NULL&lt;br/&gt;created_at: timestamp" style="shape=rectangle;whiteSpace=wrap;html=1;rounded=0;glass=0;fillColor=#dae8fc;strokeColor=#6c8ebf;shadow=0;align=left;verticalAlign=top;spacingTop=8;spacingLeft=8;spacingRight=8;spacingBottom=8;" vertex="1" parent="1">
          <mxGeometry x="590" y="55" width="280" height="90" as="geometry" />
        </mxCell>
        <mxCell id="azZfjmK6TkHbKyzEAtvO-2" value="&lt;b&gt;ACCOUNTS&lt;/b&gt;&lt;br/&gt;user_id: UUID (PK, FK → users.id)&lt;br/&gt;password_hash: text NOT NULL&lt;br/&gt;created_at: timestamp" style="shape=rectangle;whiteSpace=wrap;html=1;rounded=0;glass=0;fillColor=#dae8fc;strokeColor=#6c8ebf;shadow=0;align=left;verticalAlign=top;spacingTop=8;spacingLeft=8;spacingRight=8;spacingBottom=8;" vertex="1" parent="1">
          <mxGeometry x="1080" y="50" width="280" height="100" as="geometry" />
        </mxCell>
        <mxCell id="azZfjmK6TkHbKyzEAtvO-3" value="&lt;b&gt;NOTES&lt;/b&gt;&lt;br/&gt;id: UUID (PK)&lt;br/&gt;title: varchar(255) NOT NULL&lt;br/&gt;body: text NOT NULL&lt;br/&gt;owner_id: UUID (FK → users.id) NOT NULL&lt;br/&gt;created_at: timestamp&lt;br/&gt;updated_at: timestamp" style="shape=rectangle;whiteSpace=wrap;html=1;rounded=0;glass=0;fillColor=#ffe6cc;strokeColor=#d79b00;shadow=0;align=left;verticalAlign=top;spacingTop=8;spacingLeft=8;spacingRight=8;spacingBottom=8;" vertex="1" parent="1">
          <mxGeometry x="580" y="370" width="300" height="130" as="geometry" />
        </mxCell>
        <mxCell id="azZfjmK6TkHbKyzEAtvO-4" value="&lt;b&gt;NOTES_SHARED&lt;/b&gt;&lt;br/&gt;note_id: UUID (PK, FK → notes.id)&lt;br/&gt;user_id: UUID (PK, FK → users.id)" style="shape=rectangle;whiteSpace=wrap;html=1;rounded=0;glass=0;fillColor=#ffe6cc;strokeColor=#d79b00;shadow=0;align=left;verticalAlign=top;spacingTop=8;spacingLeft=8;spacingRight=8;spacingBottom=8;" vertex="1" parent="1">
          <mxGeometry x="780" y="220" width="300" height="70" as="geometry" />
        </mxCell>
        <mxCell id="azZfjmK6TkHbKyzEAtvO-5" value="&lt;b&gt;TAGS&lt;/b&gt;&lt;br/&gt;id: UUID (PK)&lt;br/&gt;name: varchar(50) UNIQUE NOT NULL&lt;br/&gt;created_at: timestamp" style="shape=rectangle;whiteSpace=wrap;html=1;rounded=0;glass=0;fillColor=#e1d5e7;strokeColor=#9673a6;shadow=0;align=left;verticalAlign=top;spacingTop=8;spacingLeft=8;spacingRight=8;spacingBottom=8;" vertex="1" parent="1">
          <mxGeometry x="1070" y="370" width="280" height="130" as="geometry" />
        </mxCell>
        <mxCell id="azZfjmK6TkHbKyzEAtvO-6" value="&lt;b&gt;NOTES_TAGS&lt;/b&gt;&lt;br/&gt;note_id: UUID (PK, FK → notes.id)&lt;br/&gt;tag_id: UUID (PK, FK → tags.id)" style="shape=rectangle;whiteSpace=wrap;html=1;rounded=0;glass=0;fillColor=#e1d5e7;strokeColor=#9673a6;shadow=0;align=left;verticalAlign=top;spacingTop=8;spacingLeft=8;spacingRight=8;spacingBottom=8;" vertex="1" parent="1">
          <mxGeometry x="840" y="570" width="280" height="70" as="geometry" />
        </mxCell>
        <mxCell id="azZfjmK6TkHbKyzEAtvO-7" value="1 — 1" style="edgeStyle=orthogonalEdgeStyle;rounded=0;orthogonalLoop=1;jettySize=auto;html=1;endArrow=block;endFill=1;strokeColor=#6c8ebf;" edge="1" parent="1" source="azZfjmK6TkHbKyzEAtvO-1" target="azZfjmK6TkHbKyzEAtvO-2">
          <mxGeometry relative="1" as="geometry" />
        </mxCell>
        <mxCell id="azZfjmK6TkHbKyzEAtvO-8" value="1 — N (owns)" style="edgeStyle=orthogonalEdgeStyle;rounded=0;orthogonalLoop=1;jettySize=auto;html=1;endArrow=block;endFill=1;strokeColor=#6c8ebf;" edge="1" parent="1" source="azZfjmK6TkHbKyzEAtvO-1" target="azZfjmK6TkHbKyzEAtvO-3">
          <mxGeometry relative="1" as="geometry" />
        </mxCell>
        <mxCell id="azZfjmK6TkHbKyzEAtvO-9" value="1 — N" style="edgeStyle=orthogonalEdgeStyle;rounded=0;orthogonalLoop=1;jettySize=auto;html=1;endArrow=block;endFill=1;strokeColor=#d79b00;" edge="1" parent="1" source="azZfjmK6TkHbKyzEAtvO-3" target="azZfjmK6TkHbKyzEAtvO-4">
          <mxGeometry relative="1" as="geometry" />
        </mxCell>
        <mxCell id="azZfjmK6TkHbKyzEAtvO-10" value="1 — N" style="edgeStyle=orthogonalEdgeStyle;rounded=0;orthogonalLoop=1;jettySize=auto;html=1;endArrow=block;endFill=1;strokeColor=#6c8ebf;" edge="1" parent="1" source="azZfjmK6TkHbKyzEAtvO-1" target="azZfjmK6TkHbKyzEAtvO-4">
          <mxGeometry relative="1" as="geometry" />
        </mxCell>
        <mxCell id="azZfjmK6TkHbKyzEAtvO-11" value="1 — N" style="edgeStyle=orthogonalEdgeStyle;rounded=0;orthogonalLoop=1;jettySize=auto;html=1;endArrow=block;endFill=1;strokeColor=#d79b00;" edge="1" parent="1" source="azZfjmK6TkHbKyzEAtvO-3" target="azZfjmK6TkHbKyzEAtvO-6">
          <mxGeometry relative="1" as="geometry" />
        </mxCell>
        <mxCell id="azZfjmK6TkHbKyzEAtvO-12" value="1 — N" style="edgeStyle=orthogonalEdgeStyle;rounded=0;orthogonalLoop=1;jettySize=auto;html=1;endArrow=block;endFill=1;strokeColor=#9673a6;" edge="1" parent="1" source="azZfjmK6TkHbKyzEAtvO-5" target="azZfjmK6TkHbKyzEAtvO-6">
          <mxGeometry relative="1" as="geometry" />
        </mxCell>
      </root>
    </mxGraphModel>
  </diagram>
</mxfile>
